{"title":"Buddenbrooks.2008.SWESUB.DVDRip.XviD.AC3.-Zen_Bud","uid":5537942,"size":1472847346,"categoryP":"video","categoryS":"movies","magnet":"?xt=urn:btih:92d4d0d3ec6cc7a60e22cef6bc88656738ef09b1&amp;dn=Buddenbrooks.2008.SWESUB.DVDRip.XviD.AC3.-Zen_Bud&amp;tr=udp%3A%2F%2Ftracker.openbittorrent.com%3A80&amp;tr=udp%3A%2F%2Fopen.demonii.com%3A1337&amp;tr=udp%3A%2F%2Ftracker.coppersurfer.tk%3A6969&amp;tr=udp%3A%2F%2Fexodus.desync.com%3A6969","seeders":1,"leechers":0,"uploader":"Zen_Bud","files":-1,"time":1273134717,"description":"General\nComplete name                    : Buddenbrooks.avi\nFormat                           : AVI\nFile size                        : 1.37 GiB\nDuration                         : 2h 25mn\nOverall bit rate                 : 1 352 Kbps\n\nVideo\nID                               : 0\nFormat                           : MPEG-4 Visual\nCodec ID/Hint                    : XviD\nDuration                         : 2h 25mn\nBit rate                         : 893 Kbps\nWidth                            : 720 pixels\nHeight                           : 436 pixels\nDisplay aspect ratio             : 2.35:1\nResolution                       : 8 bits\nColorimetry                      : 4:2:0\nScan type                        : Progressive\nBits/(Pixel*Frame)               : 0.114\nStream size                      : 928 MiB (66%)\nWriting library                  : XviD 1.1.2 (UTC 2006-11-01)\n\nAudio\nID                               : 1\nFormat                           : AC-3\nDuration                         : 2h 25mn\nBit rate mode                    : Constant\nBit rate                         : 448 Kbps\nChannel(s)                       : 6 channels\nChannel positions                : Front: L C R, Side: L R, LFE\nSampling rate                    : 48.0 KHz\nStream size                      : 465 MiB (33%)\n)\n\n","torrent":{"xt":"urn:btih:92d4d0d3ec6cc7a60e22cef6bc88656738ef09b1","amp;dn":"Buddenbrooks.2008.SWESUB.DVDRip.XviD.AC3.-Zen_Bud","amp;tr":["udp%3A%2F%2Ftracker.openbittorrent.com%3A80","udp%3A%2F%2Fopen.demonii.com%3A1337","udp%3A%2F%2Ftracker.coppersurfer.tk%3A6969","udp%3A%2F%2Fexodus.desync.com%3A6969"],"infoHash":"92d4d0d3ec6cc7a60e22cef6bc88656738ef09b1","infoHashBuffer":{"type":"Buffer","data":[146,212,208,211,236,108,199,166,14,34,206,246,188,136,101,103,56,239,9,177]},"announce":[],"urlList":[]}}